<?xml version="1.0" encoding="UTF-8"?>
<svg xmlns="http://www.w3.org/2000/svg" xmlns:xlink="http://www.w3.org/1999/xlink" width="48px" height="48px" viewBox="0 0 48 48" version="1.1">
<path d="M28.19 23.67l0 5.52q0 1.11-0.55 2.14q-0.55 1.05-1.33 1.83q-1.77 1.83-4.3 1.83q-2.02 0-3.25-1.34q-1.23-1.33-1.23-3.02q0-1.75 1.45-3.48q1.47-1.72 4.92-2.5l4.28-0.97ZM28.45 35.05q0.06 0.72 0.19 1.59q0.14 0.88 0.45 1.59q0.33 0.72 0.88 1.2q0.56 0.48 1.55 0.48q1.94 0 3.86-0.56q1.92-0.55 3.67-1.39l-0.45-0.78l-0.91 0.59q-0.39 0-0.62-0.81q-0.22-0.81-0.33-1.86q-0.09-1.05-0.09-2.02q0-0.97 0-1.23l0-13q0-3.19-0.98-5.41q-0.97-2.2-2.72-3.58q-1.75-1.36-4.22-1.98q-2.47-0.61-5.47-0.61q-2.02 0-4 0.39q-1.98 0.39-3.8 1.3q-0.91 0.53-1.86 1.5q-0.94 0.98-1.66 2.34q-0.33 0.72-0.59 1.72q-0.25 1.02-0.34 1.62q-0.09 0.62-0.09 0.75l0.91 0.06q0-0.06 0.22-0.48q0.23-0.42 0.66-1.08q0.42-0.64 0.81-1.09q1.5-1.56 3.97-2.45q2.47-0.88 4.88-0.72q2.41 0.17 4.12 1.53q1.72 1.38 1.72 4.3l0 3.19l-6.5 1.36q-2.14 0.47-4.42 1.17q-2.27 0.72-4.12 1.92q-1.84 1.2-3.02 3.02q-1.17 1.83-1.17 4.44q0 3.5 2.53 5.91q1.89 1.83 4.25 2.28q2.38 0.45 4.72-0.11q2.34-0.55 4.45-1.92q2.11-1.36 3.55-3.17Z" fill="rgb(255,255,255)"/>
</svg>