<?xml version="1.0" encoding="UTF-8"?>
<svg xmlns="http://www.w3.org/2000/svg" xmlns:xlink="http://www.w3.org/1999/xlink" width="48px" height="48px" viewBox="0 0 48 48" version="1.1">
<path d="M29.09 23.08l0.27 6.69q-0.02 1.39-0.7 2.67q-0.67 1.28-1.59 2.2q-2.19 2.19-5.27 2.25q-2.52-0.06-4.08-1.75q-1.56-1.67-1.61-3.8q0.05-2.17 1.81-4.27q1.78-2.09 5.81-3.06l5.36-0.94ZM29.12 35.58q0.59 1.39 0.72 2.31q0.12 0.92 0.44 1.59q0.31 0.67 0.77 1.09q0.45 0.44 1.28 0.39q2.08 0 4.12-0.59q2.05-0.59 3.58-1.08l0.02 0.03l-0.67 0.62q-1.05-0.11-1.44-1.23q-0.38-1.11-0.5-2.31q-0.11-1.2-0.11-2.31q0-1.09 0-1.38l0-14.44q0.02-3.39-1-5.7q-1-2.3-2.83-3.72q-1.83-1.42-4.47-2.08q-2.62-0.64-5.86-0.64q-2.17 0-4.3 0.42q-2.12 0.42-4.03 1.38q-0.92 0.5-1.91 1.52q-0.97 1.02-1.7 2.42q-0.33 0.73-0.61 1.8q-0.27 1.08-0.38 1.72q-0.09 0.64-0.28 0.25l0.02 0.03q-0.2 0.28 0.08-0.28q0.3-0.56 0.78-1.33q0.5-0.75 0.98-1.3q1.8-1.86 4.67-2.89q2.89-1.03 5.73-0.83q2.84 0.22 4.95 1.91q2.11 1.7 2.17 5.23l-0.16 3.98l-7.62 1.77q-2.34 0.5-4.81 1.27q-2.47 0.78-4.42 2.03q-1.95 1.27-3.17 3.12q-1.2 1.88-1.17 4.58q-0.06 3.62 2.59 6.06q1.92 1.89 4.39 2.36q2.48 0.47 4.95-0.11q2.47-0.58 4.7-2.03q2.25-1.45 4.48-3.64Z" fill="rgb(255,255,255)"/>
</svg>