<?xml version="1.0" encoding="UTF-8"?>
<svg xmlns="http://www.w3.org/2000/svg" xmlns:xlink="http://www.w3.org/1999/xlink" width="48px" height="48px" viewBox="0 0 48 48" version="1.1">
<path d="M42.14 14.2q-0.34-0.05-1.14-0.25q-0.78-0.19-1.38-0.19q-0.95 0-3.38 2.64q-2.42 2.64-2.72 3.88q2.53-1.12 5.09-2.27q3.06-1.58 3.52-3.81ZM47.53 23.89q-2.58-0.89-4.45-0.89q-1.73 0-2.97 0.55q-0.84 0.34-2.56 1.64q1.19 0 3.48 0.47q2.3 0.47 3.44 0.47q2.72 0 3.06-2.23ZM30.17 9.52q0-1.14-0.48-1.53l-2.08 0q-1.09 1.83-1.39 4.69q-0.05 0.41-0.14 4.95q4.09-7.22 4.09-8.11ZM19.41 12.12q0-4.55-2.12-4.55q-0.89 0-1.52 0.61q-0.61 0.62-0.61 1.52q0 1.53 2.61 7.92q1.64-0.95 1.64-5.5ZM34.83 30.52q0-2.77-1.89-5.58q-1.97-3.06-4.59-3.41q0 1.08 0.89 1.62q1.28 0.8 1.64 1.33q0.89 1.3 0.89 4.11q0 4-2.92 6.55q-2.92 2.55-6.97 2.55q-1.14 0-2.97-0.39q-1.48-0.34-2.97-0.7q1.78 3.81 7.72 3.81q4.64 0 7.81-2.58q3.36-2.72 3.36-7.31ZM27.45 21.33q-2.08-1.05-3.8-1.05q-3.47 0-6.88 2.83q-3.56 2.91-3.56 6.28q0 1.33 0.75 3.3q0.83 2.28 1.92 2.62q-1.28-2.08-1.28-4.25q0-3.75 3.7-6.92q3.56-3.06 7.42-3.06q0.98 0 1.72 0.25ZM11.98 20.28q-0.39-2.22-2.08-4q-1.67-1.78-3.86-1.78q-1.08 0-2.52 1.78q3.36 1.44 8.45 4ZM8.58 27.31q0-1.48-1.86-3.09q-1.84-1.61-3.39-1.61q-0.78 0-1.62 0.67q-0.84 0.67-1.23 1.5q1.33 2.03 2.72 2.03q2.52 0 5.3 1.19q0.09-0.34 0.09-0.69Z" fill="rgb(255,255,255)"/>
</svg>