<?xml version="1.0" encoding="UTF-8"?>
<svg xmlns="http://www.w3.org/2000/svg" xmlns:xlink="http://www.w3.org/1999/xlink" width="48px" height="48px" viewBox="0 0 48 48" version="1.1">
<path d="M38.14 10.72c-3.38-0.19-5.8 2.86-5.97 5.95c0.12 2.22 1.14 3.8 2.52 4.72c-1.34 2.03-2.69 4.05-4.03 6.06c-0.75-0.39-1.59-0.62-2.44-0.67c-1.19-0.06-2.23 0.33-3.09 1.02c-1.53-1.73-3.08-3.44-4.62-5.16c0.28-0.56 0.44-1.17 0.47-1.77c0.12-2.31-1.97-4-4.09-4.11c-2.31-0.11-4 1.97-4.11 4.11c0.03 0.64 0.19 1.22 0.45 1.75c-1.27 1.45-2.53 2.92-3.8 4.39c-0.56-0.39-1.25-0.64-2.03-0.67c-1.98-0.12-3.42 1.69-3.52 3.52c-0.12 1.98 1.69 3.44 3.52 3.55c2 0.09 3.44-1.7 3.55-3.55c-0.05-0.67-0.23-1.27-0.55-1.78c0.97-1.11 1.94-2.23 2.89-3.34c0.27-0.3 0.53-0.61 0.8-0.91c0.72 0.67 1.67 1.09 2.8 1.14c1.11 0.06 2.08-0.39 2.78-1.12c1.5 1.67 2.98 3.33 4.48 5c-0.67 0.92-1.09 2.05-1.16 3.17c0.16 2.97 2.27 5.09 5.23 5.25c2.97 0.16 5.11-2.53 5.25-5.25c0.08-1.5-0.58-2.81-1.62-3.73c1.38-2.06 2.75-4.14 4.14-6.22c3.39 1.22 7.86-0.58 8.11-5.39c0.19-3.36-2.86-5.8-5.95-5.95l0 0Z" fill="rgb(255,255,255)"/>
</svg>