<?xml version="1.0" encoding="UTF-8"?>
<svg xmlns="http://www.w3.org/2000/svg" xmlns:xlink="http://www.w3.org/1999/xlink" width="50px" height="50px" viewBox="0 0 50 50" version="1.1">
<path d="M18.78 1.34l3.42 14.69q-2.44-0.84-5.56-0.84q-3.14 0-5.72 1.02q-2.98 1.09-2.98 2.88q0 1.8 2.98 2.89q2.58 0.94 5.72 0.94q3.28 0 6.06-1.02q2.78-1.02 2.78-2.81q0-0.42-0.16-0.92l-3.7-14.19l11.7 1.45l-4 33.78q-2.56-0.59-5.56-0.59q-4.14 0-7.56 1.19q-3.84 1.45-3.84 3.73q0 2.47 3.84 3.83q3.28 1.19 7.56 1.19q4.28 0 7.77-1.31q3.5-1.31 3.64-3.7l2.58-41.34l-18.97-0.84Z" fill="rgb(255,96,0)"/>
</svg>