<?xml version="1.0" encoding="UTF-8"?>
<svg xmlns="http://www.w3.org/2000/svg" xmlns:xlink="http://www.w3.org/1999/xlink" width="50px" height="50px" viewBox="0 0 50 50" version="1.1">
<path d="M29.91 37.05q-2.03 0.33-3.8 0.41q-5.19-0.11-8.47-2.17q-1.61-1.02-2.42-2.27q-0.81-1.25-0.88-2.58q0.12-2.98 2.91-5.52q2.8-2.53 7.27-4.86l1.31 4.3q-2.72 0.69-4.44 2.3q-1.7 1.62-1.8 3.48q0.06 1.77 1.73 3.09q1.67 1.34 4.33 1.77q0.45-0.08 0.45-0.17q0-0.27-0.55-0.34q-1.66-0.45-2.52-1.44q-0.84-0.97-0.84-1.78q0-1.28 1.47-2.36q1.47-1.06 3.23-1.38l3 9.52ZM28.31 27.41q2.06 0 3.66 0.58q1.61 0.59 2.56 1.61q0.97 1.02 1.2 2.27q0 3.77-4.42 4.91l-3-9.36ZM24.34 14.78q-0.75-1.14-0.91-2.95q0.06-1.58 0.73-3.16q0.67-1.58 1.75-2.75q1.38-1.34 3.12-1.34q0.88 0 1.42 0.34q0.55 0.34 0.66 1q0.14 0.41 0.14 0.89q0 1.05-0.67 2.27q-0.67 1.22-1.78 2.39q-1.11 1.17-2.31 2.06q-1.2 0.89-2.16 1.25ZM23.11 15.5q-2.95 1.88-4.72 3.08q-1.75 1.22-3.41 2.72q-1.64 1.5-2.67 3.19q-1.03 1.7-1.14 3.55q0.03 2 1.2 3.84q1.19 1.86 3.3 3.31q2.12 1.45 4.92 2.27q2.81 0.83 5.97 0.83q1.89 0 3.61-0.3q0.25 0.77 0.8 2.17q0.55 1.41 0.8 2.28q0.27 0.88 0.27 1.73q0 1.31-0.45 2.06q-0.3 0.66-1.25 1.23q-0.95 0.58-2.3 0.92q-1.34 0.34-2.66 0.34q-2.58 0-3.7-1.11l0.45 0q1.77 0 2.92-0.75q1.16-0.75 1.16-1.81q0-0.81-0.61-1.48q-0.61-0.67-1.61-1.06q-0.98-0.39-2.12-0.39q-1.36 0.05-2.36 0.52q-1 0.48-1.56 1.25q-0.56 0.77-0.66 1.62q0.12 1.92 2.5 3.03q2.38 1.12 5.55 1.12q2.27 0 4.16-0.62q1.91-0.62 3.02-1.75q1.12-1.12 1.12-2.55q0-0.94-0.28-1.92q-0.28-0.97-0.88-2.64q-0.58-1.67-0.81-2.56q3.59-0.84 5.38-2.61q1.8-1.77 1.8-3.92q0-1.38-0.7-2.66q-0.69-1.27-1.97-2.27q-1.27-1-3.08-1.58q-1.81-0.58-3.98-0.58q-0.48 0-1.77 0.12l-1.58-4.8q2.3-1.33 3.95-3.11q1.66-1.77 2.5-3.77q0.86-2 0.86-4.05q0-4.33-3.44-7.41q-0.45-0.38-0.75-0.55q-0.28-0.16-0.64-0.16q-0.52 0-1.78 0.59q-1.39 0.66-2.47 1.92q-1.08 1.27-1.69 2.97q-0.59 1.72-0.62 3.69q0.14 3.06 1.44 6.02Z" fill="rgb(255,96,0)"/>
</svg>