<?xml version="1.0" encoding="UTF-8"?>
<svg xmlns="http://www.w3.org/2000/svg" xmlns:xlink="http://www.w3.org/1999/xlink" width="48px" height="48px" viewBox="0 0 48 48" version="1.1">
<path d="M24.8 36.83q-5.25 0-8.16-3.39q-2.89-3.39-2.89-9.59q0-6.11 2.81-9.39q2.81-3.27 8.2-3.27q3.31 0 5.75 1.42q2.44 1.44 3.58 4.22l7.08-2.12q-3.52-9.55-16.41-9.55q-9.06 0-13.89 4.81q-4.83 4.83-4.83 13.88q0 9.09 4.8 14.03q4.81 4.95 13.75 4.95q5.11 0 9.77-1.69q4.67-1.69 7.58-4.67l0-13.45l-15.94 0l0 5.66l8.92 0l0 5.06q-1.53 1.36-4.34 2.22q-2.8 0.88-5.78 0.88Z" fill="rgb(255,255,255)"/>
</svg>