<?xml version="1.0" encoding="UTF-8"?>
<svg xmlns="http://www.w3.org/2000/svg" xmlns:xlink="http://www.w3.org/1999/xlink" width="48px" height="48px" viewBox="0 0 48 48" version="1.1">
<path d="M34.89 37.84q0-0.33-0.28-0.45q-0.27-0.12-0.45-0.31q-0.44-0.36-0.59-1.17q-0.14-0.8-0.14-2.02l0-4.62q0-0.72 0.11-1.75l0.39-1.86l-7.66 0l-0.03 0.88q0.05 0.45 0.17 0.7q0.05 0.08 0.48 0.27q0.22 0.08 0.7 0.28q0.5 0.28 0.83 0.58q0.33 0.31 0.48 0.69q0.17 0.31 0.3 1.22q0.14 0.92 0.14 1.72q0 1.52-0.31 2.98q-0.3 1.48-0.75 2.14q-1.03 1.36-3.31 1.36q-3.23 0-4.69-2.98q-0.7-1.47-1.08-3.8q-0.36-2.31-0.36-5.36q0-4.12 0.39-7.19q0.41-3.05 1.22-5.28q1.73-4.28 4.91-4.28q1.8 0 2.98 1.02q0.61 0.53 1.05 1.31q0.45 0.78 0.81 1.92l0.28 0.97q0.2 0.66 0.52 0.97q0.31 0.33 0.78 0.33l1 0l0-7.89l-1-0.02q-0.41 0-0.69 0.23q-0.12 0.06-0.41 0.25q-0.19 0.11-0.3 0.11q-0.3-0.14-0.5-0.22q-0.55-0.27-1.39-0.69q-0.8-0.44-1.62-0.64q-0.81-0.19-1.69-0.19q-1.86 0-3.39 0.77q-0.88 0.39-1.61 0.92q-0.72 0.55-1.55 1.36q-1.36 1.44-2.41 3.19q-1.05 1.75-1.78 3.72q-0.72 1.98-1.05 4.16q-0.31 2.17-0.31 4.72q0 7.03 3.38 11.05q3.39 4.02 9.11 4.02q1.09 0 2.33-0.16q1.25-0.16 2.34-0.39q2.12-0.53 4.64-1.64l0-0.91Z" fill="rgb(255,255,255)"/>
</svg>