<?xml version="1.0" encoding="UTF-8"?>
<svg xmlns="http://www.w3.org/2000/svg" xmlns:xlink="http://www.w3.org/1999/xlink" width="48px" height="48px" viewBox="0 0 48 48" version="1.1">
<path d="M23.94 4.48c-10.77 0-19.53 8.77-19.53 19.53c0 10.75 8.77 19.5 19.53 19.5c10.75 0 19.5-8.75 19.5-19.5c0-10.77-8.75-19.53-19.5-19.53l0 0ZM23.94 41.58c-9.7 0-17.59-7.88-17.59-17.56c0-9.7 7.89-17.59 17.59-17.59c9.69 0 17.56 7.89 17.56 17.59c0 9.69-7.88 17.56-17.56 17.56l0 0ZM33.8 18.12c0 1.69-1.38 3.08-3.08 3.08c-1.69 0-3.08-1.39-3.08-3.08c0-1.7 1.39-3.08 3.08-3.08c1.7 0 3.08 1.38 3.08 3.08l0 0ZM14.67 18.12c0-1.7 1.38-3.08 3.08-3.08c1.7 0 3.08 1.38 3.08 3.08c0 1.69-1.38 3.08-3.08 3.08c-1.7 0-3.08-1.39-3.08-3.08l0 0ZM15.34 30.08l17.17 0l0 1.94l-17.17 0l0-1.94l0 0Z" fill="rgb(255,255,255)"/>
</svg>