<?xml version="1.0" encoding="UTF-8"?>
<svg xmlns="http://www.w3.org/2000/svg" xmlns:xlink="http://www.w3.org/1999/xlink" width="48px" height="48px" viewBox="0 0 48 48" version="1.1">
<path d="M14.97 40l1.77 0q0.47 0 0.78-0.31q0.31-0.31 0.42-0.78l0.94-6.34l7.8 0l-0.98 6.34q-0.06 0.47 0.28 0.78q0.34 0.31 0.81 0.31l1.77 0q0.47 0 0.77-0.31q0.31-0.31 0.42-0.78l0.94-6.34l6.34 0q0.52 0 0.83-0.31q0.31-0.3 0.31-0.83l0-1.66q0-0.52-0.31-0.83q-0.31-0.31-0.83-0.31l-5.72 0l1.34-9.27l5.72 0q0.53 0 0.84-0.31q0.31-0.31 0.31-0.83l0-1.66q0-0.53-0.31-0.84q-0.31-0.3-0.84-0.3l-5.14 0l0.94-6.34q0.05-0.47-0.27-0.78q-0.31-0.31-0.78-0.31l-1.77 0q-0.47 0-0.78 0.31q-0.31 0.31-0.41 0.78l-0.94 6.34l-7.8 0l0.94-6.34q0.05-0.47-0.27-0.78q-0.31-0.31-0.78-0.31l-1.77 0q-0.47 0-0.78 0.31q-0.31 0.31-0.41 0.78l-0.94 6.34l-6.41 0q-0.52 0-0.86 0.3q-0.33 0.31-0.33 0.84l0 1.66q0 0.52 0.33 0.83q0.34 0.31 0.86 0.31l5.78 0l-1.36 9.27l-5.77 0q-0.52 0-0.86 0.31q-0.34 0.31-0.34 0.83l0 1.66q0 0.53 0.34 0.83q0.34 0.31 0.86 0.31l5.2 0l-1 6.34q-0.05 0.47 0.28 0.78q0.34 0.31 0.81 0.31ZM20.84 19.36l7.75 0l-1.36 9.27l-7.73 0l1.34-9.27Z" fill="rgb(255,255,255)"/>
</svg>