<?xml version="1.0" encoding="UTF-8"?>
<svg xmlns="http://www.w3.org/2000/svg" xmlns:xlink="http://www.w3.org/1999/xlink" width="48px" height="48px" viewBox="0 0 48 48" version="1.1">
<path d="M38.62 42q0.92 0 1.58-0.67q0.67-0.67 0.67-1.58l0-31.5q0-0.92-0.67-1.59q-0.66-0.66-1.58-0.66l-2.25 0l0 15.75q0 0.91-0.67 1.58q-0.66 0.67-1.58 0.67l0 15.75q0 0.91 0.64 1.58q0.66 0.67 1.61 0.67l2.25 0ZM31.88 24q-0.95 0-1.61-0.66q-0.64-0.64-0.64-1.59l0-15.75l-2.25 0q-0.95 0-1.61 0.66q-0.64 0.67-0.64 1.59l0 31.5q0 0.91 0.64 1.58q0.66 0.67 1.61 0.67l2.25 0q0.92 0 1.58-0.67q0.67-0.67 0.67-1.58l0-15.75ZM20.62 42q0.92 0 1.58-0.67q0.67-0.67 0.67-1.58l0-31.5q0-0.92-0.67-1.59q-0.66-0.66-1.58-0.66l-2.25 0l0 15.75q0 0.91-0.67 1.58q-0.66 0.67-1.58 0.67l0 15.75q0 0.91 0.64 1.58q0.66 0.67 1.61 0.67l2.25 0ZM11.62 42q0.92 0 1.58-0.67q0.67-0.67 0.67-1.58l0-15.75q-0.95 0-1.61-0.67q-0.64-0.67-0.64-1.58l0-15.75l-2.25 0q-0.95 0-1.61 0.66q-0.64 0.67-0.64 1.59l0 31.5q0 0.91 0.64 1.58q0.66 0.67 1.61 0.67l2.25 0Z" fill="rgb(255,255,255)"/>
</svg>