<?xml version="1.0" encoding="UTF-8"?>
<svg xmlns="http://www.w3.org/2000/svg" xmlns:xlink="http://www.w3.org/1999/xlink" width="48px" height="48px" viewBox="0 0 48 48" version="1.1">
<path d="M38.62 37.5q0.92 0 1.58-0.5q0.67-0.5 0.67-1.19l0-23.62q0-0.69-0.67-1.19q-0.66-0.5-1.58-0.5l-2.25 0l0 11.81q0 0.69-0.67 1.19q-0.66 0.5-1.58 0.5l0 11.81q0 0.69 0.64 1.19q0.66 0.5 1.61 0.5l2.25 0ZM31.88 24q-0.95 0-1.61-0.48q-0.64-0.48-0.64-1.2l0-11.81l-2.25 0q-0.95 0-1.61 0.5q-0.64 0.5-0.64 1.19l0 23.62q0 0.69 0.64 1.19q0.66 0.5 1.61 0.5l2.25 0q0.92 0 1.58-0.5q0.67-0.5 0.67-1.19l0-11.81ZM20.62 37.5q0.92 0 1.58-0.5q0.67-0.5 0.67-1.19l0-23.62q0-0.69-0.67-1.19q-0.66-0.5-1.58-0.5l-2.25 0l0 11.81q0 0.69-0.67 1.19q-0.66 0.5-1.58 0.5l0 11.81q0 0.69 0.64 1.19q0.66 0.5 1.61 0.5l2.25 0ZM11.62 37.5q0.92 0 1.58-0.5q0.67-0.5 0.67-1.19l0-11.81q-0.95 0-1.61-0.5q-0.64-0.5-0.64-1.19l0-11.81l-2.25 0q-0.95 0-1.61 0.5q-0.64 0.5-0.64 1.19l0 23.62q0 0.69 0.64 1.19q0.66 0.5 1.61 0.5l2.25 0Z" fill="rgb(255,255,255)"/>
</svg>